<svg xmlns="http://www.w3.org/2000/svg" width="80.338" height="80.338" viewBox="0 0 80.338 80.338"><path d="M138.286,445.3a4.986,4.986,0,1,0,4.986,4.986A4.991,4.991,0,0,0,138.286,445.3Z" transform="translate(-122.768 -410.117)" fill="#0e2142"/><path d="M129.961,79.836a33.832,33.832,0,0,0,2.947-7.553v-.008h0a1.157,1.157,0,0,0,.04-.158,35.339,35.339,0,0,0,1.114-8.833.869.869,0,0,1,1.738,0v.308a35.23,35.23,0,0,0,4.085,16.181,36.266,36.266,0,0,1,11.37-11.061A35.807,35.807,0,0,1,166.97,63.56a36.827,36.827,0,0,0-17.777-15.968,36.685,36.685,0,0,0-28.515-.016A36.785,36.785,0,0,0,102.9,63.552a35.931,35.931,0,0,1,27.061,16.284Z" transform="translate(-94.77 -41.168)" fill="#0e2142"/><path d="M463.432,382.272c-.016.055-.032.119-.047.174a35.345,35.345,0,0,1-3.484,8.628,37.2,37.2,0,0,1,3.832,10.066,36.8,36.8,0,0,1,3.832-10.074A37.1,37.1,0,0,1,463.732,381c-.095.427-.19.845-.3,1.272Z" transform="translate(-423.563 -350.897)" fill="#0e2142"/><path d="M75.38,320.816A34.61,34.61,0,0,0,64.058,309.47a34.157,34.157,0,0,0-15.636-4.97c-.3.608-.577,1.225-.845,1.849a36.8,36.8,0,0,0,0,28.523c.324.766.672,1.509,1.043,2.244a34.24,34.24,0,0,0,26.761-16.3Zm-18.694,6.518a6.724,6.724,0,1,1,6.724-6.724A6.734,6.734,0,0,1,56.686,327.334Z" transform="translate(-41.168 -280.441)" fill="#0e2142"/><path d="M610.775,306.349c-.269-.624-.545-1.24-.845-1.849a34.262,34.262,0,0,0-27.03,16.316,34.21,34.21,0,0,0,26.832,16.3q.557-1.1,1.043-2.252a36.778,36.778,0,0,0,0-28.515Zm-3.089,15.123a40.19,40.19,0,0,1-11.788,0,.87.87,0,1,1,.253-1.722,38.032,38.032,0,0,0,11.283,0,.87.87,0,1,1,.253,1.722Z" transform="translate(-536.845 -280.441)" fill="#0e2142"/><path d="M142.353,530.555a35.352,35.352,0,0,0-3.958,15.368v.016a1.924,1.924,0,0,1-.008.213v.664a.869.869,0,1,1-1.738,0,35.3,35.3,0,0,0-4-16.316A35.959,35.959,0,0,1,105.7,546.934a36.671,36.671,0,0,0,63.635.008,35.975,35.975,0,0,1-26.982-16.387Z" transform="translate(-97.349 -488.585)" fill="#0e2142"/><path d="M40.169,0A40.169,40.169,0,1,0,80.338,40.169,40.167,40.167,0,0,0,40.169,0ZM67.3,67.3A38.382,38.382,0,1,1,40.177,1.786,38.356,38.356,0,0,1,78.56,40.169,38.049,38.049,0,0,1,75.542,55.11,38.48,38.48,0,0,1,67.3,67.3Z" fill="#0e2142"/></svg>